2025-03-15 14:01:55.311 java[9730:303077] +[IMKClient subclass]: chose IMKClient_Modern
2025-03-15 14:01:55.311 java[9730:303077] +[IMKInputSession subclass]: chose IMKInputSession_Modern
Input file: /Users/anhadgoyal/Downloads/1/1.mp4
Output file: /Users/anhadgoyal/Downloads/1/1_audio.wav
ffmpeg version 7.1.1 Copyright (c) 2000-2025 the FFmpeg developers
  built with Apple clang version 16.0.0 (clang-1600.0.26.6)
  configuration: --prefix=/usr/local/Cellar/ffmpeg/7.1.1 --enable-shared --enable-pthreads --enable-version3 --cc=clang --host-cflags= --host-ldflags='-Wl,-ld_classic' --enable-ffplay --enable-gnutls --enable-gpl --enable-libaom --enable-libaribb24 --enable-libbluray --enable-libdav1d --enable-libharfbuzz --enable-libjxl --enable-libmp3lame --enable-libopus --enable-librav1e --enable-librist --enable-librubberband --enable-libsnappy --enable-libsrt --enable-libssh --enable-libsvtav1 --enable-libtesseract --enable-libtheora --enable-libvidstab --enable-libvmaf --enable-libvorbis --enable-libvpx --enable-libwebp --enable-libx264 --enable-libx265 --enable-libxml2 --enable-libxvid --enable-lzma --enable-libfontconfig --enable-libfreetype --enable-frei0r --enable-libass --enable-libopencore-amrnb --enable-libopencore-amrwb --enable-libopenjpeg --enable-libspeex --enable-libsoxr --enable-libzmq --enable-libzimg --disable-libjack --disable-indev=jack --enable-videotoolbox --enable-audiotoolbox
  libavutil      59. 39.100 / 59. 39.100
  libavcodec     61. 19.101 / 61. 19.101
  libavformat    61.  7.100 / 61.  7.100
  libavdevice    61.  3.100 / 61.  3.100
  libavfilter    10.  4.100 / 10.  4.100
  libswscale      8.  3.100 /  8.  3.100
  libswresample   5.  3.100 /  5.  3.100
  libpostproc    58.  3.100 / 58.  3.100
Input #0, mov,mp4,m4a,3gp,3g2,mj2, from '/Users/anhadgoyal/Downloads/1/1.mp4':
  Metadata:
    major_brand     : mp42
    minor_version   : 1
    compatible_brands: isommp41mp42
    creation_time   : 2025-03-15T06:13:20.000000Z
  Duration: 00:12:54.61, start: 0.000000, bitrate: 662 kb/s
  Stream #0:0[0x1](und): Video: h264 (Main) (avc1 / 0x31637661), yuv420p(tv, smpte170m/smpte170m/bt709, progressive), 640x480 [SAR 1:1 DAR 4:3], 496 kb/s, 23.97 fps, 23.98 tbr, 90k tbn (default)
      Metadata:
        creation_time   : 2025-03-15T06:13:20.000000Z
        handler_name    : Core Media Video
        vendor_id       : [0][0][0][0]
  Stream #0:1[0x2](und): Audio: aac (LC) (mp4a / 0x6134706D), 48000 Hz, stereo, fltp, 160 kb/s (default)
      Metadata:
        creation_time   : 2025-03-15T06:13:20.000000Z
        handler_name    : Core Media Audio
        vendor_id       : [0][0][0][0]
File '/Users/anhadgoyal/Downloads/1/1_audio.wav' already exists. Overwrite? [y/N] Not overwriting - exiting
Error opening output file /Users/anhadgoyal/Downloads/1/1_audio.wav.
Audio extraction successful.
/Library/Frameworks/Python.framework/Versions/3.12/lib/python3.12/site-packages/whisper/transcribe.py:132: UserWarning: FP16 is not supported on CPU; using FP32 instead
  warnings.warn("FP16 is not supported on CPU; using FP32 instead")
